<mxfile host="app.diagrams.net" agent="Mozilla/5.0 (Windows NT 10.0; Win64; x64) AppleWebKit/537.36 (KHTML, like Gecko) Chrome/136.0.0.0 Safari/537.36 Edg/136.0.0.0" version="26.2.14">
  <diagram name="第 1 页" id="7eOGNjB4b9CCqRyUnLKF">
    <mxGraphModel dx="199" dy="123" grid="1" gridSize="10" guides="1" tooltips="1" connect="1" arrows="1" fold="1" page="1" pageScale="1" pageWidth="827" pageHeight="1169" math="1" shadow="0">
      <root>
        <mxCell id="0" />
        <mxCell id="1" parent="0" />
        <mxCell id="g6dGDbAbc25Qe_cGskMG-10" value="" style="ellipse;whiteSpace=wrap;html=1;aspect=fixed;dashed=1;strokeColor=#FFD966;dashPattern=8 8;" parent="1" vertex="1">
          <mxGeometry x="255" y="95" width="100" height="100" as="geometry" />
        </mxCell>
        <mxCell id="g6dGDbAbc25Qe_cGskMG-1" value="" style="ellipse;whiteSpace=wrap;html=1;aspect=fixed;strokeColor=default;fillColor=#000000;" parent="1" vertex="1">
          <mxGeometry x="210" y="140" width="10" height="10" as="geometry" />
        </mxCell>
        <mxCell id="g6dGDbAbc25Qe_cGskMG-2" value="" style="ellipse;whiteSpace=wrap;html=1;aspect=fixed;strokeColor=default;fillColor=#000000;" parent="1" vertex="1">
          <mxGeometry x="280" y="110" width="10" height="10" as="geometry" />
        </mxCell>
        <mxCell id="g6dGDbAbc25Qe_cGskMG-3" value="" style="ellipse;whiteSpace=wrap;html=1;aspect=fixed;strokeColor=default;fillColor=#000000;" parent="1" vertex="1">
          <mxGeometry x="260" y="140" width="10" height="10" as="geometry" />
        </mxCell>
        <mxCell id="g6dGDbAbc25Qe_cGskMG-4" value="" style="ellipse;whiteSpace=wrap;html=1;aspect=fixed;strokeColor=default;fillColor=#000000;" parent="1" vertex="1">
          <mxGeometry x="280" y="170" width="10" height="10" as="geometry" />
        </mxCell>
        <mxCell id="g6dGDbAbc25Qe_cGskMG-5" value="" style="ellipse;whiteSpace=wrap;html=1;aspect=fixed;strokeColor=default;fillColor=#000000;" parent="1" vertex="1">
          <mxGeometry x="300" y="140" width="10" height="10" as="geometry" />
        </mxCell>
        <mxCell id="g6dGDbAbc25Qe_cGskMG-6" value="" style="ellipse;whiteSpace=wrap;html=1;aspect=fixed;strokeColor=default;fillColor=#000000;" parent="1" vertex="1">
          <mxGeometry x="320" y="110" width="10" height="10" as="geometry" />
        </mxCell>
        <mxCell id="g6dGDbAbc25Qe_cGskMG-7" value="" style="ellipse;whiteSpace=wrap;html=1;aspect=fixed;strokeColor=default;fillColor=#000000;" parent="1" vertex="1">
          <mxGeometry x="320" y="170" width="10" height="10" as="geometry" />
        </mxCell>
        <mxCell id="g6dGDbAbc25Qe_cGskMG-8" value="" style="ellipse;whiteSpace=wrap;html=1;aspect=fixed;strokeColor=default;fillColor=#000000;" parent="1" vertex="1">
          <mxGeometry x="340" y="140" width="10" height="10" as="geometry" />
        </mxCell>
        <mxCell id="g6dGDbAbc25Qe_cGskMG-11" value="" style="endArrow=none;html=1;rounded=0;exitX=1;exitY=0.5;exitDx=0;exitDy=0;dashed=1;strokeColor=#999999;" parent="1" edge="1">
          <mxGeometry width="50" height="50" relative="1" as="geometry">
            <mxPoint x="222.00000000000273" y="145" as="sourcePoint" />
            <mxPoint x="252" y="145" as="targetPoint" />
          </mxGeometry>
        </mxCell>
        <mxCell id="g6dGDbAbc25Qe_cGskMG-13" value="" style="endArrow=classic;html=1;rounded=0;" parent="1" edge="1">
          <mxGeometry width="50" height="50" relative="1" as="geometry">
            <mxPoint x="359" y="144.81" as="sourcePoint" />
            <mxPoint x="388" y="144.8719101123595" as="targetPoint" />
          </mxGeometry>
        </mxCell>
        <mxCell id="g6dGDbAbc25Qe_cGskMG-14" value="&lt;div&gt;&lt;br&gt;&lt;/div&gt;" style="rounded=1;whiteSpace=wrap;html=1;" parent="1" vertex="1">
          <mxGeometry x="390" y="114.99999999999994" width="120" height="60" as="geometry" />
        </mxCell>
        <mxCell id="g6dGDbAbc25Qe_cGskMG-15" value="&lt;span style=&quot;color: rgb(0, 0, 0); font-family: Helvetica; font-size: 12px; font-style: normal; font-variant-ligatures: normal; font-variant-caps: normal; font-weight: 400; letter-spacing: normal; orphans: 2; text-align: center; text-indent: 0px; text-transform: none; widows: 2; word-spacing: 0px; -webkit-text-stroke-width: 0px; white-space: normal; background-color: rgb(236, 236, 236); text-decoration-thickness: initial; text-decoration-style: initial; text-decoration-color: initial; display: inline !important; float: none;&quot;&gt;$$LRD(P_{i,j})$$&lt;/span&gt;" style="text;whiteSpace=wrap;html=1;" parent="1" vertex="1">
          <mxGeometry x="425" y="130" width="50" height="10" as="geometry" />
        </mxCell>
        <mxCell id="g6dGDbAbc25Qe_cGskMG-16" value="计算局部可达密度&lt;div style=&quot;forced-color-adjust: none;&quot;&gt;&lt;br style=&quot;forced-color-adjust: none; color: rgb(0, 0, 0); font-family: Helvetica; font-size: 12px; font-style: normal; font-variant-ligatures: normal; font-variant-caps: normal; font-weight: 400; letter-spacing: normal; orphans: 2; text-align: center; text-indent: 0px; text-transform: none; widows: 2; word-spacing: 0px; -webkit-text-stroke-width: 0px; white-space: normal; background-color: rgb(236, 236, 236); text-decoration-thickness: initial; text-decoration-style: initial; text-decoration-color: initial;&quot;&gt;&#xa;&#xa;&lt;/div&gt;" style="text;whiteSpace=wrap;html=1;" parent="1" vertex="1">
          <mxGeometry x="400" y="120" width="100" height="20" as="geometry" />
        </mxCell>
        <mxCell id="WJhIYZjS93WkjMFesJua-1" value="k近邻" style="text;strokeColor=none;align=center;fillColor=none;html=1;verticalAlign=middle;whiteSpace=wrap;rounded=0;" parent="1" vertex="1">
          <mxGeometry x="254" y="195" width="60" height="30" as="geometry" />
        </mxCell>
        <mxCell id="WJhIYZjS93WkjMFesJua-2" value="$$N_k(P_{i,j})$$" style="text;strokeColor=none;align=center;fillColor=none;html=1;verticalAlign=middle;whiteSpace=wrap;rounded=0;" parent="1" vertex="1">
          <mxGeometry x="296" y="195" width="60" height="30" as="geometry" />
        </mxCell>
        <mxCell id="WJhIYZjS93WkjMFesJua-3" value="" style="rounded=1;whiteSpace=wrap;html=1;" parent="1" vertex="1">
          <mxGeometry x="390" y="203.99999999999994" width="120" height="60" as="geometry" />
        </mxCell>
        <mxCell id="WJhIYZjS93WkjMFesJua-4" value="&lt;span style=&quot;color: rgb(0, 0, 0); font-family: Helvetica; font-size: 12px; font-style: normal; font-variant-ligatures: normal; font-variant-caps: normal; font-weight: 400; letter-spacing: normal; orphans: 2; text-align: center; text-indent: 0px; text-transform: none; widows: 2; word-spacing: 0px; -webkit-text-stroke-width: 0px; white-space: normal; background-color: rgb(236, 236, 236); text-decoration-thickness: initial; text-decoration-style: initial; text-decoration-color: initial; display: inline !important; float: none;&quot;&gt;计算局部异常因子&lt;/span&gt;" style="text;whiteSpace=wrap;html=1;" parent="1" vertex="1">
          <mxGeometry x="400" y="214" width="100" height="20" as="geometry" />
        </mxCell>
        <mxCell id="WJhIYZjS93WkjMFesJua-5" value="$$LOF(P_{i,j})$$" style="text;strokeColor=none;align=center;fillColor=none;html=1;verticalAlign=middle;whiteSpace=wrap;rounded=0;" parent="1" vertex="1">
          <mxGeometry x="420" y="234" width="60" height="30" as="geometry" />
        </mxCell>
        <mxCell id="WJhIYZjS93WkjMFesJua-6" value="$$P_{i,j}$$" style="text;strokeColor=none;align=center;fillColor=none;html=1;verticalAlign=middle;whiteSpace=wrap;rounded=0;" parent="1" vertex="1">
          <mxGeometry x="185" y="165" width="60" height="30" as="geometry" />
        </mxCell>
        <mxCell id="WJhIYZjS93WkjMFesJua-8" value="" style="rhombus;whiteSpace=wrap;html=1;" parent="1" vertex="1">
          <mxGeometry x="390" y="293" width="120" height="60" as="geometry" />
        </mxCell>
        <mxCell id="WJhIYZjS93WkjMFesJua-11" value="$$LOF_{i,j} &amp;gt; \tau$$" style="text;strokeColor=none;align=center;fillColor=none;html=1;verticalAlign=middle;whiteSpace=wrap;rounded=0;" parent="1" vertex="1">
          <mxGeometry x="420" y="308" width="60" height="30" as="geometry" />
        </mxCell>
        <mxCell id="WJhIYZjS93WkjMFesJua-12" value="" style="endArrow=classic;html=1;rounded=0;entryX=0.5;entryY=0;entryDx=0;entryDy=0;exitX=0.5;exitY=1;exitDx=0;exitDy=0;" parent="1" edge="1">
          <mxGeometry width="50" height="50" relative="1" as="geometry">
            <mxPoint x="449.6" y="266" as="sourcePoint" />
            <mxPoint x="449.6" y="291" as="targetPoint" />
          </mxGeometry>
        </mxCell>
        <mxCell id="WJhIYZjS93WkjMFesJua-15" value="" style="rounded=1;whiteSpace=wrap;html=1;fillColor=none;strokeColor=#AE594E;" parent="1" vertex="1">
          <mxGeometry x="270" y="298" width="70" height="50" as="geometry" />
        </mxCell>
        <mxCell id="WJhIYZjS93WkjMFesJua-14" value="" style="ellipse;whiteSpace=wrap;html=1;aspect=fixed;strokeColor=#FF8000;fillColor=#FF8000;" parent="1" vertex="1">
          <mxGeometry x="288" y="331" width="10" height="10" as="geometry" />
        </mxCell>
        <mxCell id="WJhIYZjS93WkjMFesJua-16" value="&lt;span style=&quot;color: rgb(0, 0, 0); font-family: Helvetica; font-size: 12px; font-style: normal; font-variant-ligatures: normal; font-variant-caps: normal; font-weight: 400; letter-spacing: normal; orphans: 2; text-align: center; text-indent: 0px; text-transform: none; widows: 2; word-spacing: 0px; -webkit-text-stroke-width: 0px; white-space: normal; background-color: rgb(236, 236, 236); text-decoration-thickness: initial; text-decoration-style: initial; text-decoration-color: initial; display: inline !important; float: none;&quot;&gt;异常点&lt;/span&gt;" style="text;whiteSpace=wrap;html=1;" parent="1" vertex="1">
          <mxGeometry x="286" y="303" width="40" height="20" as="geometry" />
        </mxCell>
        <mxCell id="WJhIYZjS93WkjMFesJua-17" value="" style="ellipse;whiteSpace=wrap;html=1;aspect=fixed;strokeColor=#FF8000;fillColor=#FF8000;" parent="1" vertex="1">
          <mxGeometry x="314" y="331" width="10" height="10" as="geometry" />
        </mxCell>
        <mxCell id="WJhIYZjS93WkjMFesJua-19" value="" style="endArrow=classic;html=1;rounded=0;" parent="1" edge="1">
          <mxGeometry width="50" height="50" relative="1" as="geometry">
            <mxPoint x="384" y="323" as="sourcePoint" />
            <mxPoint x="344" y="323" as="targetPoint" />
          </mxGeometry>
        </mxCell>
        <mxCell id="WJhIYZjS93WkjMFesJua-21" value="" style="endArrow=classic;html=1;rounded=0;entryX=0.5;entryY=0;entryDx=0;entryDy=0;exitX=0.5;exitY=1;exitDx=0;exitDy=0;" parent="1" edge="1">
          <mxGeometry width="50" height="50" relative="1" as="geometry">
            <mxPoint x="449.57000000000005" y="177" as="sourcePoint" />
            <mxPoint x="449.57000000000005" y="202" as="targetPoint" />
          </mxGeometry>
        </mxCell>
        <mxCell id="WJhIYZjS93WkjMFesJua-22" value="&lt;span style=&quot;color: rgb(0, 0, 0); font-family: Helvetica; font-size: 12px; font-style: normal; font-variant-ligatures: normal; font-variant-caps: normal; font-weight: 400; letter-spacing: normal; orphans: 2; text-align: center; text-indent: 0px; text-transform: none; widows: 2; word-spacing: 0px; -webkit-text-stroke-width: 0px; white-space: normal; background-color: rgb(236, 236, 236); text-decoration-thickness: initial; text-decoration-style: initial; text-decoration-color: initial; float: none; display: inline !important;&quot;&gt;是&lt;/span&gt;" style="text;whiteSpace=wrap;html=1;" parent="1" vertex="1">
          <mxGeometry x="358" y="298" width="15" height="10" as="geometry" />
        </mxCell>
        <mxCell id="f1GBTyW69OYaNTkkVw5G-1" value="" style="endArrow=classic;html=1;rounded=0;entryX=0.5;entryY=0;entryDx=0;entryDy=0;exitX=0.5;exitY=1;exitDx=0;exitDy=0;" edge="1" parent="1">
          <mxGeometry width="50" height="50" relative="1" as="geometry">
            <mxPoint x="449.5" y="355" as="sourcePoint" />
            <mxPoint x="449.5" y="380" as="targetPoint" />
          </mxGeometry>
        </mxCell>
        <mxCell id="f1GBTyW69OYaNTkkVw5G-2" value="&lt;div style=&quot;text-align: center;&quot;&gt;&lt;span style=&quot;background-color: transparent; color: light-dark(rgb(0, 0, 0), rgb(255, 255, 255));&quot;&gt;否&lt;/span&gt;&lt;/div&gt;" style="text;whiteSpace=wrap;html=1;" vertex="1" parent="1">
          <mxGeometry x="456" y="350" width="15" height="10" as="geometry" />
        </mxCell>
      </root>
    </mxGraphModel>
  </diagram>
</mxfile>
